<?xml version="1.0" standalone="no"?><!DOCTYPE svg PUBLIC "-//W3C//DTD SVG 1.1//EN" "http://www.w3.org/Graphics/SVG/1.1/DTD/svg11.dtd"><svg t="1648813787791" class="icon" viewBox="0 0 1024 1024" version="1.1" xmlns="http://www.w3.org/2000/svg" p-id="2391" xmlns:xlink="http://www.w3.org/1999/xlink" width="200" height="200"><defs><style type="text/css"></style></defs><path d="M768 307.2H256a153.6 153.6 0 0 0-153.6 153.6v102.4a153.6 153.6 0 0 0 153.6 153.6h512a153.6 153.6 0 0 0 153.6-153.6v-102.4a153.6 153.6 0 0 0-153.6-153.6zM353.536 640h-2.816a25.6 25.6 0 0 1-22.016-19.712l-46.592-204.8a25.6 25.6 0 1 1 51.2-11.264L362.496 537.6l67.84-139.264a25.6 25.6 0 1 1 45.824 22.528l-99.584 204.8a25.6 25.6 0 0 1-23.04 14.336z m165.632-21.248a25.6 25.6 0 0 1-25.6 21.248 14.08 14.08 0 0 1-4.608 0 25.6 25.6 0 0 1-20.736-29.44l36.096-204.8a25.6 25.6 0 0 1 51.2 8.704z m231.936-153.6A89.344 89.344 0 0 1 665.6 537.6h-29.696l-14.336 81.152a25.6 25.6 0 0 1-25.6 21.248 14.08 14.08 0 0 1-4.608 0 25.6 25.6 0 0 1-20.736-29.44l18.176-102.4a25.6 25.6 0 0 1 25.6-21.76h51.2a38.4 38.4 0 0 0 35.072-29.952 18.432 18.432 0 0 0-3.328-15.616 17.152 17.152 0 0 0-13.568-5.632h-51.2a25.6 25.6 0 0 1 0-51.2h51.2a68.352 68.352 0 0 1 52.736 23.808 69.888 69.888 0 0 1 14.592 57.344z" p-id="2392" fill="#d81e06"></path></svg>