<svg xmlns="http://www.w3.org/2000/svg" version="1.1" role="img" height="16" width="16" viewBox="0 0 16 16">
    <path
            fill="red"
            d="M13.151.922a.75.75 0 10-1.06 1.06L13.109 3H11.16a3.75 3.75 0 00-2.873 1.34l-6.173 7.356A2.25 2.25 0 01.39 12.5H0V14h.391a3.75 3.75 0 002.873-1.34l6.173-7.356a2.25 2.25 0 011.724-.804h1.947l-1.017 1.018a.75.75 0 001.06 1.06L15.98 3.75 13.15.922zM.391 3.5H0V2h.391c1.109 0 2.16.49 2.873 1.34L4.89 5.277l-.979 1.167-1.796-2.14A2.25 2.25 0 00.39 3.5z"
    ></path>
    <path
            fill="red"
            d="M7.5 10.723l.98-1.167.957 1.14a2.25 2.25 0 001.724.804h1.947l-1.017-1.018a.75.75 0 111.06-1.06l2.829 2.828-2.829 2.828a.75.75 0 11-1.06-1.06L13.109 13H11.16a3.75 3.75 0 01-2.873-1.34l-.787-.938z"
    ></path>
</svg>
